Coordinates
version=1
nRows=11
nColumns=42
inDegrees=yes
"Units are S.I. units (second, meters, Newtons, ...)"
"If the header above contains a line with 'inDegrees', this indicates whether rotational values are in degrees (yes) or radians (no)."
endheader
time	pelvis_tilt	pelvis_list	pelvis_rotation	pelvis_tx	pelvis_ty	pelvis_tz	hip_flexion_r	hip_adduction_r	hip_rotation_r	knee_angle_r	knee_adduction_r	knee_angle_r_beta	ankle_angle_r	subtalar_angle_r	mtp_angle_r	hip_flexion_l	hip_adduction_l	hip_rotation_l	knee_angle_l	knee_adduction_l	knee_angle_l_beta	ankle_angle_l	subtalar_angle_l	mtp_angle_l	lumbar_extension	lumbar_bending	lumbar_rotation	arm_flex_r	arm_add_r	arm_rot_r	elbow_flex_r	pro_sup_r	wrist_flex_r	wrist_dev_r	arm_flex_l	arm_add_l	arm_rot_l	elbow_flex_l	pro_sup_l	wrist_flex_l	wrist_dev_l
0	-30.64448964	-0.074912178	-9.115584147	-0.161255059	0.940379774	0.377467526	   25.28830051984858	-4.034117535	-10.44178936	   20.37033307177454	5.85288448	0.355529381	2.814343826	   13.00099995043203	0	   51.71445369701051	-12.03907151	-8.373232242	   44.75968837091444	4.7086539	0.781203934	   14.50435310078065	-6.43948707	-10	-7.497477047	5.082679185	3.871044634	0.098697191	-15.60070678	-22.49096466	   88.00022859672733	   90.00000000999999	0	0	-59.27353382	-44.30319721	-55.48346754	   33.40263411838828	   90.00000000999999	0	0
0.005	-30.52162644	-0.055151413	-9.42989846	-0.153250655	0.944051641	0.376051473	   24.65381428817302	-4.545474326	-11.27347267	   20.77219136207548	5.85288448	0.362543131	1.261550217	   12.97383837808315	0	   51.27588785582694	-11.95296719	-9.192435984	   41.55648788126359	4.7086539	0.725297539	   14.61738596668668	-5.257636657	-10	-7.620941103	4.902135687	4.160773147	0.286157649	-15.76245603	-22.33728118	   88.24518392155376	   90.00000000999999	0	0	-59.67055027	-42.85888171	-55.56079695	   33.33633076876417	   90.00000000999999	0	0
0.01	-30.33139702	-0.062245349	-9.762278475	-0.145111706	0.947521166	0.374612903	   24.02880776769943	-5.068880767	-12.02808785	   21.44414604202936	5.85288448	0.374270953	-0.214551649	   12.83455547979997	0	   50.74008953399527	-11.88828936	-10.08678489	   38.34931673483548	4.7086539	0.669321843	   14.73193382086049	-3.975668898	-10	-7.783403324	4.74879608	4.463516839	0.465819905	-15.92626437	-22.17706698	   88.46109125332181	   90.00000000999999	0	0	-60.02380678	-41.40293658	-55.59885856	   33.26270037789482	   90.00000000999999	0	0
0.015	-30.07463458	-0.09663585	-10.11029635	-0.136841783	0.95076505	0.373154149	   23.40871687904878	-5.602402128	-12.68901354	   22.37967812481455	5.85288448	0.390599068	-1.600698428	   12.59045680253796	0	   50.11722322223267	-11.84573403	-11.05537299	   35.16181981930917	4.7086539	0.613689527	   14.85276779572618	-2.598991864	-10	-7.982562503	4.624145348	4.777897899	0.636372864	-16.09245178	-22.01102467	   88.64781516700214	   90.00000000999999	0	0	-60.34149576	-39.94119848	-55.60260123	   33.18177484225649	   90.00000000999999	0	0
0.02	-29.75312859	-0.158357298	-10.47105587	-0.128445247	0.95376224	0.371677653	   22.78842060116052	-6.143911948	-13.24114659	   23.56796307731528	5.85288448	0.411338553	-2.885912611	   12.25183420427254	0	   49.41858408154494	-11.82569358	-12.0958398	   32.01759342351500	4.7086539	0.558812424	   14.98379809917774	-1.135479917	-10	-8.215291461	4.529294332	5.102328546	0.796350417	-16.26100476	-21.84030756	   88.80502498272489	   90.00000000999999	0	0	-60.6313844	-38.47976226	-55.57653212	   33.09380291215284	   90.00000000999999	0	0
0.025	-29.36960652	-0.247017522	-10.84122486	-0.119927211	0.956494037	0.370186022	   22.16238449542882	-6.691085364	-13.67128702	   24.99415611295296	5.85288448	0.436230317	-4.061755943	   11.83154534411290	0	   48.65643190156018	-11.82823331	-13.20417087	   28.93993200863387	4.7086539	0.505097099	   15.12785976535960	0.404449881	-10	-8.47766922	4.464932058	5.435015973	0.944141213	-16.4315383	-21.66651325	   88.93218811468338	   90.00000000999999	0	0	-60.90069095	-37.02497616	-55.52467445	   32.99920076245159	   90.00000000999999	0	0
0.03	-28.92769386	-0.361786903	-11.21707574	-0.111293496	0.958944146	0.368682082	   21.52481904899042	-7.241399862	-13.9684666	   26.63978749404149	5.85288448	0.464952003	-5.122495883	   11.34449285327821	0	   47.84380505041668	-11.85307199	-14.37453993	   25.95157717700801	4.7086539	0.452940468	   15.28653145530468	2.00782952	-10	-8.76503318	4.431285204	5.773967279	1.078001373	-16.60326697	-21.49166682	   89.02857403418585	   90.00000000999999	0	0	-61.1559826	-35.58342744	-55.45054875	   32.89850125178381	   90.00000000999999	0	0
0.035	-28.43185334	-0.501395958	-11.59453414	-0.102550567	0.961098675	0.367168908	   20.86985063084095	-7.792144352	-14.12420818	   28.48325699452358	5.85288448	0.497126616	-6.065178915	   10.80702948636736	0	   46.99431984793551	-11.89956704	-15.5992046	   23.07447480179042	4.7086539	0.402725558	   15.45999539389597	3.659206702	-10	-9.072050217	4.428086216	6.116995807	1.196069296	-16.77498671	-21.31819461	   89.09326895539373	   90.00000000999999	0	0	-61.40309491	-34.16191808	-55.35717522	   32.79230452825870	   90.00000000999999	0	0
0.04	-27.88730532	-0.664141463	-11.96923537	-0.093705472	0.962946091	0.365649841	   20.19170312737001	-8.340437054	-14.13270529	   30.50041346832395	5.85288448	0.532332638	-6.889608557	   10.23631938409902	0	   46.12196124275611	-11.96670541	-16.86846643	   20.32954611400594	4.7086539	0.354817515	   15.64694591391421	5.340791402	-10	-9.392805012	4.454551348	6.461730431	1.296381915	-16.94506902	-21.14888936	   89.12520072450445	   90.00000000999999	0	0	-61.64707223	-32.76742996	-55.24709444	   32.68123237849198	   90.00000000999999	0	0
0.045	-27.29993158	-0.847901095	-12.33658838	-0.084765772	0.964477134	0.364128486	   19.48488823889547	-8.883252031	-13.99091542	   32.66520250597394	5.85288448	0.570115334	-7.598230045	9.64968731	0	   45.24087072242943	-12.05310106	-18.17070425	   17.73647800896385	4.7086539	0.309559939	   15.84455309307840	7.032685091	-10	-9.720903552	4.509369885	6.805629149	1.376892191	-17.11146868	-20.98686723	   89.12317271585424	   90.00000000999999	0	0	-61.89212779	-31.40707928	-55.12240299	   32.56588834631231	   90.00000000999999	0	0
0.05	-26.67616527	-1.050156638	-12.69184702	-0.075739474	0.965684707	0.362608682	   18.74440200756142	-9.417453481	-13.69856463	   34.95036252637159	5.85288448	0.6099989	-8.195927813	9.063987081	0	   44.36513701280170	-12.15700016	-19.49248689	   15.31353685082862	4.7086539	0.267271638	   16.04848649838637	8.713192763	-10	-10.04958957	4.590705736	7.145998118	1.435487986	-17.27174563	-20.83551686	   89.08590496351495	   90.00000000999999	0	0	-62.14162177	-30.08805995	-54.98480079	   32.44682520628749	   90.00000000999999	0	0
